<mxfile host="app.diagrams.net" modified="2023-04-19T10:16:29.352Z" agent="Mozilla/5.0 (Macintosh; Intel Mac OS X 10_15_7) AppleWebKit/537.36 (KHTML, like Gecko) Chrome/112.0.0.0 Safari/537.36" version="21.1.7" etag="7XPqKmUZqp3rwD_zTmeh" type="github">
  <diagram name="Page-1" id="tpSlx0TJLCMtrr7hPc9e">
    <mxGraphModel>
      <root>
        <mxCell id="0" />
        <mxCell id="1" parent="0" />
      </root>
    </mxGraphModel>
  </diagram>
</mxfile>
